{"accessors" : [{"bufferView" : 0, "byteOffset" : 0, "componentType" : 5125, "count" : 1312626, "type" : "SCALAR", "max" : [1312625], "min" : [0]}, {"bufferView" : 1, "byteOffset" : 0, "componentType" : 5126, "count" : 1312626, "type" : "VEC3", "max" : [31503000, 31503004, 31503008], "min" : [0.22999998927116394, 4.230000019073486, 8.229999542236328]}, {"bufferView" : 1, "byteOffset" : 12, "componentType" : 5126, "count" : 1312626, "type" : "VEC3", "max" : [31503012, 31503016, 31503020], "min" : [12.229999542236328, 16.229999542236328, 20.229999542236328]}], "asset" : {"generator" : "Aspose.3D 20.8", "version" : "2.0"}, "buffers" : [{"uri" : "buffer.bin", "byteLength" : 36753536}], "bufferViews" : [{"buffer" : 0, "byteOffset" : 0, "byteLength" : 5250504, "target" : 34963}, {"buffer" : 0, "byteOffset" : 5250508, "byteLength" : 31503024, "byteStride" : 24, "target" : 34962}], "meshes" : [{"primitives" : [{"attributes" : {"POSITION" : 1, "NORMAL" : 2}, "indices" : 0, "mode" : 4}]}], "nodes" : [{"mesh" : 0, "name" : ""}], "scene" : 0, "scenes" : [{"nodes" : [0]}]}